<?xml version="1.0" encoding="UTF-8"?>
<mxfile host="app.diagrams.net">
  <diagram name="Sequence Diagram - Student Welfare Portal" id="student-welfare-sequence">
    <mxGraphModel dx="1212" dy="635" grid="1" gridSize="10" guides="1" tooltips="1" connect="1" arrows="1" fold="1" page="1" pageScale="1" pageWidth="827" pageHeight="1169">
      <root>
        <mxCell id="0" />
        <mxCell id="1" parent="0" />

        <!-- Actors -->
        <mxCell id="student" value="Student" style="shape=umlActor;verticalLabelPosition=bottom;verticalAlign=top;" vertex="1" parent="1">
          <mxGeometry x="80" y="20" width="30" height="60" as="geometry" />
        </mxCell>

        <mxCell id="portal" value="Portal (System)" style="shape=rectangle;whiteSpace=wrap;html=1;" vertex="1" parent="1">
          <mxGeometry x="280" y="20" width="100" height="40" as="geometry" />
        </mxCell>

        <mxCell id="counselor" value="Counselor" style="shape=umlActor;verticalLabelPosition=bottom;verticalAlign=top;" vertex="1" parent="1">
          <mxGeometry x="530" y="20" width="30" height="60" as="geometry" />
        </mxCell>

        <!-- Lifelines -->
        <mxCell id="student_lifeline" style="shape=line;dashed=1;endArrow=none;html=1;strokeColor=#000000;" edge="1" parent="1" source="student">
          <mxGeometry relative="1" as="geometry">
            <mxPoint x="95" y="80" as="targetPoint" />
          </mxGeometry>
        </mxCell>

        <mxCell id="portal_lifeline" style="shape=line;dashed=1;endArrow=none;html=1;strokeColor=#000000;" edge="1" parent="1" source="portal">
          <mxGeometry relative="1" as="geometry">
            <mxPoint x="330" y="80" as="targetPoint" />
          </mxGeometry>
        </mxCell>

        <mxCell id="counselor_lifeline" style="shape=line;dashed=1;endArrow=none;html=1;strokeColor=#000000;" edge="1" parent="1" source="counselor">
          <mxGeometry relative="1" as="geometry">
            <mxPoint x="545" y="80" as="targetPoint" />
          </mxGeometry>
        </mxCell>

        <!-- Messages -->
        <mxCell id="login_request" value="Login Request" style="endArrow=block;html=1;" edge="1" parent="1" source="student" target="portal">
          <mxGeometry relative="1" as="geometry">
            <mxPoint x="280" y="110" as="targetPoint" />
          </mxGeometry>
        </mxCell>

        <mxCell id="login_success" value="Login Success" style="endArrow=block;html=1;dashed=1;" edge="1" parent="1" source="portal" target="student">
          <mxGeometry relative="1" as="geometry">
            <mxPoint x="100" y="140" as="targetPoint" />
          </mxGeometry>
        </mxCell>

        <mxCell id="access_forum" value="Access Marketplace / Forum" style="endArrow=block;html=1;" edge="1" parent="1" source="student" target="portal">
          <mxGeometry relative="1" as="geometry">
            <mxPoint x="280" y="170" as="targetPoint" />
          </mxGeometry>
        </mxCell>

        <mxCell id="start_chat" value="Start Counseling Chat" style="endArrow=block;html=1;" edge="1" parent="1" source="student" target="portal">
          <mxGeometry relative="1" as="geometry">
            <mxPoint x="280" y="200" as="targetPoint" />
          </mxGeometry>
        </mxCell>

        <mxCell id="notify_counselor" value="Notify Counselor" style="endArrow=block;html=1;" edge="1" parent="1" source="portal" target="counselor">
          <mxGeometry relative="1" as="geometry">
            <mxPoint x="530" y="230" as="targetPoint" />
          </mxGeometry>
        </mxCell>

        <mxCell id="join_chat" value="Join Chat Session" style="endArrow=block;html=1;" edge="1" parent="1" source="counselor" target="portal">
          <mxGeometry relative="1" as="geometry">
            <mxPoint x="280" y="260" as="targetPoint" />
          </mxGeometry>
        </mxCell>

        <mxCell id="counselor_joined" value="Counselor Joins" style="endArrow=block;html=1;dashed=1;" edge="1" parent="1" source="portal" target="student">
          <mxGeometry relative="1" as="geometry">
            <mxPoint x="100" y="290" as="targetPoint" />
          </mxGeometry>
        </mxCell>

        <mxCell id="chat_exchange" value="Chat Messages" style="endArrow=block;html=1;" edge="1" parent="1" source="student" target="counselor">
          <mxGeometry relative="1" as="geometry">
            <mxPoint x="530" y="320" as="targetPoint" />
          </mxGeometry>
        </mxCell>

      </root>
    </mxGraphModel>
  </diagram>
</mxfile>
